<svg width="537" height="509" viewBox="0 0 537 509" fill="none" xmlns="http://www.w3.org/2000/svg">
<path d="M139.542 339.53H96.0513V352.184H139.542V339.53Z" fill="#F4F4F4"/>
<path opacity="0.05" d="M107.59 339.53H101.892V352.184H107.59V339.53Z" fill="#292A2E"/>
<path d="M133.985 342.28H110.29V349.779H133.985V342.28Z" fill="white"/>
<path d="M174.232 341.18L133.821 323.53L128.756 335.127L169.167 352.777L174.232 341.18Z" fill="#F4F4F4"/>
<path opacity="0.05" d="M174.232 341.18L133.821 323.53L128.756 335.127L169.167 352.777L174.232 341.18Z" fill="#292A2E"/>
<path d="M168.805 338.81L163.51 336.497L158.445 348.094L163.74 350.407L168.805 338.81Z" fill="white"/>
<path d="M159.901 337.922L137.884 328.306L134.883 335.178L156.899 344.794L159.901 337.922Z" fill="white"/>
<path opacity="0.05" d="M174.308 499.834H163.378V507.133H174.308V499.834Z" fill="#292A2E"/>
<path opacity="0.05" d="M62.5675 499.834H51.6382V507.133H62.5675V499.834Z" fill="#292A2E"/>
<path d="M184.326 352.777H41.6196V499.587H184.326V352.777Z" fill="#F4F4F4"/>
<path opacity="0.03" d="M184.326 352.777H41.6196V499.587H184.326V352.777Z" fill="#292A2E"/>
<path d="M210.772 352.777H68.0654V499.587H210.772V352.777Z" fill="#F4F4F4"/>
<path opacity="0.05" d="M200.754 499.834H189.824V507.133H200.754V499.834Z" fill="#292A2E"/>
<path opacity="0.05" d="M89.0133 499.834H78.084V507.133H89.0133V499.834Z" fill="#292A2E"/>
<path opacity="0.7" d="M205.415 359.653H73.4224V387.858H205.415V359.653Z" fill="white"/>
<path opacity="0.7" d="M205.415 394.762H73.4224V422.967H205.415V394.762Z" fill="white"/>
<path opacity="0.7" d="M205.415 429.87H73.4224V458.075H205.415V429.87Z" fill="white"/>
<path opacity="0.05" d="M139.419 377.702C141.599 377.702 143.366 375.935 143.366 373.756C143.366 371.576 141.599 369.809 139.419 369.809C137.24 369.809 135.473 371.576 135.473 373.756C135.473 375.935 137.24 377.702 139.419 377.702Z" fill="#292A2E"/>
<path opacity="0.05" d="M139.419 412.811C141.599 412.811 143.366 411.044 143.366 408.865C143.366 406.685 141.599 404.918 139.419 404.918C137.24 404.918 135.473 406.685 135.473 408.865C135.473 411.044 137.24 412.811 139.419 412.811Z" fill="#292A2E"/>
<path opacity="0.05" d="M139.419 447.919C141.599 447.919 143.366 446.152 143.366 443.973C143.366 441.793 141.599 440.026 139.419 440.026C137.24 440.026 135.473 441.793 135.473 443.973C135.473 446.152 137.24 447.919 139.419 447.919Z" fill="#292A2E"/>
<path opacity="0.7" d="M205.415 465.77H73.4224V493.975H205.415V465.77Z" fill="white"/>
<path opacity="0.05" d="M139.419 483.819C141.598 483.819 143.365 482.052 143.365 479.872C143.365 477.693 141.598 475.926 139.419 475.926C137.239 475.926 135.472 477.693 135.472 479.872C135.472 482.052 137.239 483.819 139.419 483.819Z" fill="#292A2E"/>
<path d="M0.379 508.144H536.621C536.721 508.144 536.818 508.104 536.889 508.033C536.96 507.962 537 507.865 537 507.765C537 507.664 536.96 507.568 536.889 507.497C536.818 507.426 536.721 507.386 536.621 507.386H0.379C0.278483 507.386 0.182083 507.426 0.111007 507.497C0.0399303 507.568 0 507.664 0 507.765C0 507.865 0.0399303 507.962 0.111007 508.033C0.182083 508.104 0.278483 508.144 0.379 508.144Z" fill="#292A2E"/>
<g opacity="0.65">
<path d="M0.379 508.144H536.621C536.721 508.144 536.818 508.104 536.889 508.033C536.96 507.962 537 507.865 537 507.765C537 507.664 536.96 507.568 536.889 507.497C536.818 507.426 536.721 507.386 536.621 507.386H0.379C0.278483 507.386 0.182083 507.426 0.111007 507.497C0.0399303 507.568 0 507.664 0 507.765C0 507.865 0.0399303 507.962 0.111007 508.033C0.182083 508.104 0.278483 508.144 0.379 508.144Z" fill="#292A2E"/>
</g>
<path d="M500.335 507.923L501.398 507.718L484.779 342.566L483.715 342.77L500.335 507.923Z" fill="#494949"/>
<path d="M438.451 507.923L439.514 507.718L422.895 342.566L421.832 342.77L438.451 507.923Z" fill="#494949"/>
<path d="M301.66 507.923L300.597 507.718L317.216 342.566L318.28 342.77L301.66 507.923Z" fill="#494949"/>
<path d="M363.544 507.923L362.481 507.718L379.1 342.566L380.163 342.77L363.544 507.923Z" fill="#494949"/>
<path d="M385.58 269.877L375.871 342.593L376.944 342.737L386.653 270.021L385.58 269.877Z" fill="#494949"/>
<path d="M497.018 269.877L487.309 342.593L488.382 342.736L498.091 270.02L497.018 269.877Z" fill="#494949"/>
<path d="M375.969 347.993H484.969C487.91 347.993 490.294 345.609 490.294 342.668V342.668C490.294 339.727 487.91 337.343 484.969 337.343H375.969C373.028 337.343 370.644 339.727 370.644 342.668V342.668C370.644 345.609 373.028 347.993 375.969 347.993Z" fill="#292A2E"/>
<path opacity="0.8" d="M375.969 347.993H484.969C487.91 347.993 490.294 345.609 490.294 342.668V342.668C490.294 339.727 487.91 337.343 484.969 337.343H375.969C373.028 337.343 370.644 339.727 370.644 342.668V342.668C370.644 345.609 373.028 347.993 375.969 347.993Z" fill="white"/>
<path d="M370.102 342.67C370.103 341.115 370.722 339.623 371.821 338.523C372.921 337.422 374.413 336.803 375.968 336.802H484.969C486.525 336.802 488.017 337.42 489.117 338.52C490.217 339.62 490.835 341.112 490.835 342.668C490.835 344.224 490.217 345.716 489.117 346.816C488.017 347.916 486.525 348.534 484.969 348.534H375.968C374.414 348.533 372.923 347.914 371.823 346.815C370.723 345.716 370.104 344.225 370.102 342.67ZM375.968 337.887C374.7 337.887 373.483 338.391 372.586 339.288C371.689 340.185 371.185 341.402 371.185 342.67C371.185 343.939 371.689 345.156 372.586 346.053C373.483 346.95 374.7 347.454 375.968 347.454H484.969C486.238 347.454 487.454 346.95 488.351 346.053C489.248 345.156 489.752 343.939 489.752 342.67C489.752 341.402 489.248 340.185 488.351 339.288C487.454 338.391 486.238 337.887 484.969 337.887H375.968Z" fill="#292A2E"/>
<path d="M316.143 347.993H425.144C428.085 347.993 430.469 345.609 430.469 342.668V342.668C430.469 339.727 428.085 337.343 425.144 337.343H316.143C313.202 337.343 310.818 339.727 310.818 342.668V342.668C310.818 345.609 313.202 347.993 316.143 347.993Z" fill="white"/>
<path d="M310.276 342.67C310.278 341.115 310.897 339.624 311.997 338.524C313.097 337.424 314.588 336.806 316.143 336.804H425.144C426.7 336.804 428.192 337.422 429.292 338.522C430.392 339.622 431.01 341.114 431.01 342.67C431.01 344.226 430.392 345.718 429.292 346.818C428.192 347.919 426.7 348.537 425.144 348.537H316.143C314.588 348.535 313.097 347.916 311.997 346.816C310.897 345.717 310.278 344.226 310.276 342.67ZM316.143 337.887C314.875 337.887 313.658 338.391 312.761 339.288C311.864 340.185 311.36 341.402 311.36 342.67C311.36 343.939 311.864 345.156 312.761 346.053C313.658 346.95 314.875 347.454 316.143 347.454H425.144C426.412 347.454 427.629 346.95 428.526 346.053C429.423 345.156 429.927 343.939 429.927 342.67C429.927 341.402 429.423 340.185 428.526 339.288C427.629 338.391 426.412 337.887 425.144 337.887H316.143Z" fill="#292A2E"/>
<path d="M391.556 269.951H497.268C498.996 269.951 500.666 269.323 501.964 268.182C503.263 267.042 504.102 265.468 504.326 263.754L511.318 210.055C511.448 209.051 511.364 208.031 511.069 207.063C510.774 206.094 510.276 205.2 509.608 204.44C508.94 203.679 508.118 203.07 507.196 202.652C506.273 202.235 505.273 202.019 504.261 202.019H398.546C396.818 202.019 395.148 202.648 393.85 203.789C392.551 204.929 391.712 206.503 391.489 208.217L384.496 261.916C384.365 262.92 384.45 263.94 384.745 264.908C385.04 265.877 385.539 266.771 386.207 267.532C386.875 268.292 387.698 268.902 388.62 269.319C389.543 269.736 390.543 269.952 391.556 269.951Z" fill="#292A2E"/>
<path opacity="0.8" d="M391.556 269.951H497.268C498.996 269.951 500.666 269.323 501.964 268.182C503.263 267.042 504.102 265.468 504.326 263.754L511.318 210.055C511.448 209.051 511.364 208.031 511.069 207.063C510.774 206.094 510.276 205.2 509.608 204.44C508.94 203.679 508.118 203.07 507.196 202.652C506.273 202.235 505.273 202.019 504.261 202.019H398.546C396.818 202.019 395.148 202.648 393.85 203.789C392.551 204.929 391.712 206.503 391.489 208.217L384.496 261.916C384.365 262.92 384.45 263.94 384.745 264.908C385.04 265.877 385.539 266.771 386.207 267.532C386.875 268.292 387.698 268.902 388.62 269.319C389.543 269.736 390.543 269.952 391.556 269.951Z" fill="white"/>
<path d="M385.801 267.888C385.082 267.07 384.546 266.108 384.229 265.066C383.911 264.024 383.82 262.926 383.96 261.846L390.953 208.147C391.197 206.305 392.101 204.613 393.497 203.387C394.894 202.16 396.687 201.482 398.546 201.477H504.261C505.35 201.477 506.426 201.71 507.419 202.159C508.411 202.608 509.296 203.264 510.015 204.082C510.734 204.901 511.269 205.863 511.587 206.905C511.904 207.947 511.995 209.045 511.855 210.125L504.862 263.824C504.618 265.666 503.714 267.358 502.317 268.584C500.921 269.811 499.127 270.489 497.268 270.493H391.556C390.466 270.493 389.39 270.261 388.397 269.811C387.405 269.362 386.52 268.706 385.801 267.888ZM398.546 202.56C396.95 202.564 395.41 203.147 394.212 204.2C393.013 205.253 392.237 206.706 392.028 208.288L385.035 261.986C384.914 262.914 384.993 263.856 385.265 264.751C385.538 265.646 385.998 266.472 386.615 267.174C387.232 267.877 387.992 268.44 388.844 268.826C389.696 269.211 390.62 269.411 391.556 269.411H497.268C498.864 269.407 500.404 268.825 501.603 267.772C502.803 266.719 503.579 265.266 503.788 263.684L510.78 209.986C510.901 209.058 510.823 208.116 510.55 207.221C510.278 206.326 509.818 205.5 509.201 204.797C508.584 204.095 507.824 203.532 506.972 203.146C506.12 202.76 505.196 202.561 504.261 202.561L398.546 202.56Z" fill="#292A2E"/>
<path d="M385.578 269.951H491.293C493.021 269.951 494.69 269.323 495.989 268.182C497.288 267.042 498.127 265.468 498.35 263.754L505.343 210.055C505.473 209.051 505.388 208.031 505.094 207.063C504.799 206.094 504.301 205.2 503.633 204.44C502.965 203.679 502.142 203.07 501.22 202.652C500.298 202.235 499.297 202.019 498.285 202.019H392.57C390.842 202.019 389.173 202.648 387.874 203.789C386.575 204.929 385.736 206.503 385.513 208.217L378.521 261.916C378.39 262.919 378.475 263.939 378.769 264.908C379.064 265.876 379.562 266.77 380.23 267.531C380.898 268.291 381.721 268.901 382.643 269.318C383.565 269.736 384.565 269.951 385.578 269.951Z" fill="white"/>
<path d="M379.823 267.888C379.104 267.07 378.568 266.108 378.251 265.066C377.934 264.024 377.842 262.926 377.982 261.846L384.975 208.147C385.219 206.305 386.123 204.613 387.52 203.387C388.916 202.16 390.71 201.482 392.569 201.477H498.282C499.372 201.477 500.448 201.71 501.441 202.159C502.433 202.608 503.318 203.264 504.037 204.082C504.755 204.901 505.291 205.863 505.609 206.905C505.926 207.947 506.017 209.045 505.876 210.125L498.884 263.824C498.64 265.666 497.736 267.357 496.34 268.583C494.944 269.81 493.151 270.488 491.293 270.493H385.577C384.488 270.493 383.412 270.26 382.419 269.811C381.427 269.362 380.542 268.706 379.823 267.888ZM392.57 202.56C390.974 202.564 389.434 203.147 388.235 204.2C387.036 205.253 386.259 206.705 386.05 208.288L379.057 261.986C378.936 262.914 379.015 263.856 379.287 264.751C379.56 265.646 380.02 266.472 380.637 267.174C381.254 267.877 382.014 268.44 382.866 268.826C383.718 269.211 384.642 269.411 385.577 269.411H491.293C492.888 269.407 494.429 268.825 495.628 267.772C496.827 266.719 497.604 265.266 497.813 263.684L504.806 209.986C504.926 209.059 504.848 208.116 504.575 207.221C504.303 206.327 503.843 205.501 503.226 204.798C502.609 204.095 501.849 203.532 500.997 203.146C500.145 202.761 499.22 202.561 498.285 202.561L392.57 202.56Z" fill="#292A2E"/>
<path d="M400.589 115.569C400.589 115.569 394.348 109.362 394.281 97.0347C394.226 87.4893 402.033 94.7374 402.033 94.7374C402.033 94.7374 402.062 87.864 406.887 89.2078C411.711 90.5516 413.496 98.0201 413.496 98.0201" fill="#0C0C0C"/>
<path d="M432.202 93.4803C432.202 93.4803 456.248 99.4392 442.895 131.3L440.716 131.149L436.293 130.842" fill="#0C0C0C"/>
<path d="M401.338 164.413C401.446 164.398 402.648 184.337 425.814 182.601C441.851 181.399 447.569 164.384 447.937 164.384C446.207 164.017 444.071 163.459 443.221 163.268C441.371 162.838 439.695 161.855 438.417 160.449C437.139 159.044 436.319 157.282 436.067 155.4C435.597 152.573 436.392 138.113 436.149 135.253L411.531 140.748C411.875 146.788 414.283 160.79 405.846 163.268C404.438 163.678 402.926 164.053 401.338 164.413Z" fill="#E98862"/>
<path opacity="0.52" d="M411.183 157.545C411.569 156.303 411.817 155.021 411.924 153.725C412.194 150.765 412.139 147.786 411.761 144.839C416.765 144.163 421.479 142.098 425.367 138.877C425.824 140.566 428.338 147.942 427.641 149.544C426.328 152.579 420.145 157.545 411.183 157.545Z" fill="#0C0C0C"/>
<path d="M414.865 151.729C424.605 152.185 436.955 147.683 438.909 134.644L440.674 122.88C442.629 109.842 437.366 98.2447 425.09 96.4039C412.814 94.563 402.053 103.757 400.098 116.795L399.317 122.003C399.08 123.796 398.965 125.603 398.974 127.412C398.962 132.192 398.962 139.462 401.487 144.726C403.87 149.695 408.642 151.437 414.865 151.729Z" fill="#E98862"/>
<path d="M412.036 139.18C410.038 138.997 408.111 138.348 406.41 137.285C406.373 137.264 406.341 137.237 406.315 137.204C406.288 137.171 406.269 137.133 406.258 137.092C406.247 137.051 406.244 137.009 406.25 136.967C406.256 136.925 406.27 136.885 406.292 136.848C406.313 136.812 406.342 136.781 406.376 136.756C406.41 136.731 406.449 136.713 406.49 136.704C406.531 136.694 406.574 136.693 406.615 136.701C406.657 136.708 406.697 136.724 406.732 136.747C410.409 138.948 413.987 139.189 417.084 137.447C417.146 137.41 417.211 137.376 417.277 137.346C417.353 137.318 417.438 137.32 417.512 137.353C417.587 137.386 417.645 137.447 417.676 137.522C417.707 137.598 417.706 137.682 417.676 137.758C417.645 137.833 417.586 137.894 417.512 137.927C417.487 137.938 417.447 137.961 417.391 137.993C415.764 138.913 413.9 139.326 412.036 139.18Z" fill="#0C0C0C"/>
<path d="M411.726 142.135C411.364 142.107 411.005 142.049 410.653 141.961C410.613 141.952 410.576 141.934 410.543 141.91C410.509 141.885 410.481 141.854 410.46 141.819C410.439 141.784 410.425 141.745 410.419 141.704C410.412 141.664 410.414 141.622 410.424 141.582C410.434 141.542 410.452 141.505 410.476 141.472C410.5 141.439 410.531 141.411 410.566 141.389C410.601 141.368 410.64 141.354 410.681 141.348C410.722 141.342 410.763 141.344 410.803 141.353C412.921 141.876 414.082 141.032 414.131 140.995C414.197 140.945 414.28 140.923 414.363 140.934C414.445 140.946 414.519 140.989 414.57 141.055C414.62 141.121 414.642 141.205 414.631 141.287C414.619 141.369 414.576 141.444 414.51 141.494C413.684 142.023 412.7 142.249 411.726 142.135Z" fill="#0C0C0C"/>
<path d="M403.599 122.487C404.443 122.487 405.128 121.802 405.128 120.958C405.128 120.113 404.443 119.429 403.599 119.429C402.754 119.429 402.07 120.113 402.07 120.958C402.07 121.802 402.754 122.487 403.599 122.487Z" fill="#0C0C0C"/>
<path d="M417.817 123.435C418.661 123.435 419.346 122.75 419.346 121.906C419.346 121.061 418.661 120.377 417.817 120.377C416.972 120.377 416.288 121.061 416.288 121.906C416.288 122.75 416.972 123.435 417.817 123.435Z" fill="#0C0C0C"/>
<path d="M437.552 138.502C441.282 139.061 444.905 135.524 445.465 131.793C446.024 128.062 443.308 125.552 439.578 124.992L437.28 127.204L434.344 138.021L437.552 138.502Z" fill="#E98862"/>
<path d="M434.656 131.988C434.656 131.988 435.926 113.333 430.478 111.424C426.85 110.153 417.074 114.208 408.909 111.461C405.335 110.259 401.731 110.69 401.139 112.373C400.905 113.04 399.97 102.87 406.739 96.1749C412.128 90.8445 427.323 91.2127 433.864 94.0985C451.975 102.089 440.237 125.912 440.237 125.912L438.523 132.168L434.656 131.988Z" fill="#0C0C0C"/>
<path d="M410.374 134.509H410.35C409.148 134.332 407.15 133.901 407.282 133.001C407.39 132.255 410.617 124.508 410.985 123.628C411 123.589 411.022 123.553 411.051 123.523C411.08 123.492 411.114 123.468 411.152 123.452C411.191 123.435 411.232 123.426 411.274 123.426C411.315 123.426 411.357 123.434 411.395 123.45C411.434 123.466 411.468 123.49 411.498 123.519C411.527 123.549 411.55 123.585 411.565 123.624C411.58 123.662 411.587 123.704 411.585 123.746C411.584 123.787 411.574 123.828 411.557 123.866C410.125 127.297 407.969 132.583 407.894 133.091C407.982 133.321 409.194 133.712 410.439 133.896C410.518 133.909 410.588 133.951 410.637 134.014C410.685 134.077 410.707 134.156 410.699 134.235C410.69 134.314 410.652 134.387 410.591 134.438C410.53 134.49 410.452 134.516 410.373 134.511L410.374 134.509Z" fill="#0C0C0C"/>
<path d="M408.732 115.941C407.514 115.42 406.178 115.237 404.864 115.413C404.22 115.495 403.591 115.673 402.999 115.942C402.415 116.205 401.866 116.54 401.366 116.94C401.274 117.011 401.213 117.115 401.195 117.229C401.178 117.344 401.205 117.461 401.272 117.556C401.338 117.651 401.439 117.717 401.553 117.74C401.666 117.763 401.785 117.74 401.883 117.678L401.914 117.658C402.369 117.339 402.863 117.078 403.384 116.882C403.896 116.686 404.435 116.569 404.982 116.535C406.06 116.459 407.139 116.669 408.11 117.143L408.151 117.164C408.311 117.246 408.496 117.262 408.668 117.207C408.839 117.152 408.981 117.032 409.063 116.872C409.146 116.712 409.161 116.526 409.106 116.355C409.052 116.184 408.931 116.042 408.771 115.959L408.732 115.941Z" fill="#0C0C0C"/>
<path d="M417.59 117.928C418.618 117.592 419.715 117.534 420.773 117.758C421.31 117.868 421.827 118.058 422.307 118.323C422.796 118.589 423.249 118.915 423.656 119.294L423.683 119.318C423.771 119.394 423.885 119.433 424.002 119.427C424.118 119.421 424.228 119.37 424.307 119.285C424.387 119.2 424.431 119.087 424.429 118.97C424.427 118.854 424.381 118.742 424.299 118.659C423.858 118.194 423.361 117.786 422.818 117.445C422.269 117.097 421.672 116.834 421.045 116.663C419.768 116.308 418.419 116.304 417.14 116.652C416.967 116.7 416.821 116.815 416.732 116.972C416.644 117.129 416.622 117.314 416.671 117.487C416.719 117.66 416.834 117.807 416.991 117.895C417.148 117.983 417.333 118.005 417.506 117.957L417.545 117.944L417.59 117.928Z" fill="#0C0C0C"/>
<path d="M419.692 98.0354C421.1 94.0804 420.063 90.0985 417.376 89.1416C414.689 88.1848 411.369 90.6152 409.961 94.5702C408.552 98.5252 409.589 102.507 412.276 103.464C414.963 104.421 418.283 101.99 419.692 98.0354Z" fill="#0C0C0C"/>
<path d="M251.426 479.856C251.426 479.856 248.523 494.904 234.434 495.743C220.345 496.581 223.4 507.806 223.4 507.806H277.241V480.905L251.426 479.856Z" fill="#F5C520"/>
<path d="M353.858 470.355C353.858 470.355 357.896 485.139 345.623 492.111C333.35 499.083 341.046 507.806 341.046 507.806L389.36 484.037L377.485 459.901L353.858 470.355Z" fill="#F5C520"/>
<path d="M383.781 466.179L343.039 337.649H416.89C431.725 337.649 437.909 325.069 437.909 310.235C437.909 295.401 423.326 282.397 408.491 282.397H308.819C299.772 282.397 289.626 287.93 284.661 295.494C279.695 303.058 281.037 314.778 284.635 323.08L349.877 481.539" fill="#262626"/>
<path opacity="0.8" d="M383.781 466.179L343.039 337.649H416.89C431.725 337.649 437.909 325.069 437.909 310.235C437.909 295.401 423.326 282.397 408.491 282.397H308.819C299.772 282.397 289.626 287.93 284.661 295.494C279.695 303.058 281.037 314.778 284.635 323.08L349.877 481.539" fill="#0A0A0A"/>
<path d="M280.338 493.831L348.46 337.649L437.909 337.643C458.868 336 468.467 324.513 468.162 309.683C467.861 295.04 460.446 280.576 445.869 280.576H325.31C314.525 280.798 306.039 292.717 302.038 302.734L245.405 484.269" fill="#262626"/>
<path d="M474.264 280.756C474.264 280.756 478.237 306.661 471.94 321.063C464.079 339.044 434.61 337.644 434.61 337.644L436.27 280.577L474.264 280.756Z" fill="#262626"/>
<path d="M299.475 280.246L362.66 267.153C365.293 266.608 367.746 265.407 369.791 263.662C371.837 261.917 373.41 259.684 374.364 257.17L399.215 191.683C399.972 189.718 400.333 187.622 400.277 185.517C400.222 183.411 399.751 181.338 398.891 179.415C398.032 177.492 396.801 175.758 395.27 174.313C393.739 172.867 391.937 171.738 389.968 170.991C387.999 170.243 385.901 169.893 383.796 169.958C381.691 170.024 379.62 170.505 377.701 171.374C375.783 172.242 374.055 173.481 372.616 175.02C371.178 176.558 370.058 178.365 369.32 180.338L347.581 237.621L292.987 248.935C292.987 248.935 298.382 280.473 299.475 280.246Z" fill="#F5C520"/>
<path d="M372.558 208.313C373.287 216.885 378.459 270.366 379.163 280.925H474.223C474.769 271.402 476.542 230.97 478.614 212.347C480.591 194.576 481.308 184.435 479.031 178.913C475.014 169.173 464.964 165.668 456.306 164.496C451.02 163.781 443.07 163.268 443.07 163.268C443.07 163.268 442.397 176.885 426.344 177.643C404.492 178.671 405.951 163.266 405.843 163.266C402.303 163.266 383.034 165.841 378.216 168.981C371.41 173.417 369.399 179.461 369.319 185.015C369.228 191.411 371.728 198.591 372.558 208.313Z" fill="#F5C520"/>
<path d="M376.294 252.013H376.316C376.388 252.007 376.454 251.973 376.5 251.918C376.547 251.863 376.569 251.792 376.563 251.72L374.095 222.075C374.093 222.039 374.084 222.004 374.068 221.972C374.052 221.94 374.03 221.912 374.003 221.889C373.975 221.865 373.944 221.848 373.909 221.838C373.875 221.827 373.839 221.824 373.804 221.828C373.768 221.831 373.734 221.84 373.702 221.857C373.67 221.873 373.642 221.895 373.619 221.922C373.596 221.95 373.579 221.981 373.568 222.015C373.557 222.049 373.553 222.084 373.556 222.12L376.023 251.764C376.028 251.832 376.059 251.895 376.11 251.941C376.16 251.988 376.225 252.013 376.294 252.013Z" fill="#0C0C0C"/>
<path d="M331.017 269.805L310.159 205.689C309.793 204.562 309.08 203.58 308.122 202.884C307.163 202.187 306.009 201.812 304.825 201.811H219.844C218.958 201.811 218.085 202.021 217.296 202.423C216.507 202.825 215.824 203.409 215.303 204.126C214.783 204.842 214.439 205.672 214.301 206.547C214.162 207.422 214.233 208.317 214.507 209.16L235.366 273.277C235.732 274.404 236.446 275.386 237.405 276.082C238.363 276.779 239.518 277.154 240.703 277.153H325.681C326.566 277.153 327.44 276.944 328.229 276.542C329.018 276.139 329.701 275.556 330.222 274.839C330.742 274.123 331.086 273.293 331.224 272.418C331.362 271.543 331.292 270.648 331.017 269.805Z" fill="#292A2E"/>
<path d="M331.017 269.805L310.159 205.689C309.793 204.562 309.08 203.58 308.122 202.884C307.163 202.187 306.009 201.812 304.825 201.811H219.844C218.958 201.811 218.085 202.021 217.296 202.423C216.507 202.825 215.824 203.409 215.303 204.126C214.783 204.842 214.439 205.672 214.301 206.547C214.162 207.422 214.233 208.317 214.507 209.16L235.366 273.277C235.732 274.404 236.446 275.386 237.405 276.082C238.363 276.779 239.518 277.154 240.703 277.153H325.681C326.566 277.153 327.44 276.944 328.229 276.542C329.018 276.139 329.701 275.556 330.222 274.839C330.742 274.123 331.086 273.293 331.224 272.418C331.362 271.543 331.292 270.648 331.017 269.805Z" fill="#292A2E"/>
<path d="M370.887 271.954H314.002C312.585 271.954 311.436 273.103 311.436 274.521V274.587C311.436 276.004 312.585 277.153 314.002 277.153H370.887C372.304 277.153 373.453 276.004 373.453 274.587V274.521C373.453 273.103 372.304 271.954 370.887 271.954Z" fill="#292A2E"/>
<path d="M370.887 271.954H314.002C312.585 271.954 311.436 273.103 311.436 274.521V274.587C311.436 276.004 312.585 277.153 314.002 277.153H370.887C372.304 277.153 373.453 276.004 373.453 274.587V274.521C373.453 273.103 372.304 271.954 370.887 271.954Z" fill="#292A2E"/>
<path d="M272.763 251.523C277.685 251.523 281.675 247.533 281.675 242.61C281.675 237.688 277.685 233.698 272.763 233.698C267.84 233.698 263.85 237.688 263.85 242.61C263.85 247.533 267.84 251.523 272.763 251.523Z" fill="white"/>
<path d="M335.773 254.786L349.969 249.809L347.931 249.668C347.274 249.61 346.664 249.304 346.224 248.813C345.784 248.322 345.546 247.681 345.56 247.022C345.579 246.682 345.667 246.349 345.819 246.044C345.97 245.739 346.183 245.469 346.442 245.248C346.702 245.028 347.004 244.863 347.33 244.763C347.655 244.664 347.998 244.631 348.336 244.668L373.454 247.338L372.801 255.409C372.599 257.916 371.652 260.305 370.083 262.271C368.513 264.236 366.392 265.688 363.992 266.44L353.115 269.829C352.553 270.016 351.944 270.003 351.391 269.792C350.837 269.582 350.374 269.187 350.078 268.674C349.821 268.205 349.721 267.666 349.792 267.136C349.863 266.606 350.101 266.113 350.472 265.728C350.439 265.704 350.413 265.671 350.397 265.633C350.384 265.597 350.38 265.559 350.386 265.521C350.391 265.483 350.406 265.447 350.429 265.416L348.425 266.045C347.8 266.255 347.118 266.22 346.518 265.947C345.917 265.673 345.443 265.182 345.191 264.572C344.985 264.02 344.981 263.412 345.179 262.856C345.377 262.3 345.765 261.832 346.274 261.534C346.251 261.522 346.23 261.505 346.212 261.485L345.388 261.743C344.826 261.932 344.216 261.92 343.661 261.71C343.107 261.499 342.642 261.104 342.346 260.59C342.035 260.021 341.955 259.354 342.125 258.728C342.295 258.102 342.7 257.566 343.256 257.233C343.251 257.216 343.248 257.199 343.248 257.182L337.336 259.254C337.043 259.357 336.732 259.401 336.422 259.384C336.112 259.367 335.808 259.288 335.528 259.154C334.963 258.882 334.529 258.396 334.322 257.805C334.114 257.213 334.15 256.562 334.422 255.997C334.694 255.432 335.179 254.998 335.771 254.79L335.773 254.786Z" fill="#E98862"/>
<path opacity="0.2" d="M343.483 257.408C343.511 257.408 343.538 257.403 343.564 257.394L349.282 255.314C349.312 255.304 349.338 255.287 349.361 255.266C349.384 255.245 349.402 255.22 349.415 255.192C349.428 255.164 349.436 255.134 349.437 255.103C349.438 255.072 349.433 255.041 349.423 255.012C349.412 254.983 349.396 254.956 349.375 254.933C349.354 254.91 349.329 254.892 349.3 254.879C349.272 254.866 349.242 254.859 349.211 254.857C349.18 254.856 349.149 254.861 349.12 254.871L343.401 256.951C343.349 256.97 343.305 257.007 343.277 257.055C343.249 257.103 343.24 257.159 343.249 257.214C343.259 257.268 343.287 257.318 343.33 257.353C343.372 257.389 343.426 257.408 343.482 257.408H343.483Z" fill="#0A0A0A"/>
<path opacity="0.2" d="M346.373 261.564C346.399 261.564 346.426 261.56 346.452 261.551L350.959 259.951C350.989 259.941 351.016 259.925 351.04 259.905C351.064 259.884 351.083 259.859 351.097 259.831C351.111 259.803 351.119 259.772 351.121 259.741C351.123 259.709 351.118 259.678 351.108 259.648C351.097 259.619 351.081 259.592 351.06 259.568C351.039 259.545 351.013 259.526 350.985 259.513C350.956 259.5 350.925 259.493 350.894 259.492C350.863 259.49 350.831 259.496 350.802 259.507L346.294 261.107C346.242 261.125 346.198 261.162 346.17 261.21C346.141 261.257 346.131 261.314 346.141 261.368C346.15 261.423 346.178 261.473 346.221 261.509C346.263 261.544 346.317 261.564 346.373 261.564Z" fill="#0A0A0A"/>
<path opacity="0.2" d="M350.617 265.787C350.646 265.787 350.674 265.782 350.701 265.772L352.813 264.966C352.871 264.944 352.918 264.9 352.944 264.842C352.969 264.785 352.971 264.721 352.949 264.662C352.926 264.604 352.882 264.557 352.825 264.531C352.768 264.506 352.703 264.504 352.644 264.526L350.533 265.332C350.482 265.352 350.439 265.389 350.412 265.437C350.385 265.485 350.376 265.54 350.386 265.594C350.396 265.648 350.424 265.697 350.466 265.733C350.509 265.768 350.562 265.787 350.617 265.787H350.617Z" fill="#0A0A0A"/>
<path d="M362.336 242.56L421.894 242.52L444.426 187.558L478.036 201.69L449.924 266.921L449.649 267.571C448.274 270.741 445.957 273.413 443.013 275.223C440.069 277.033 436.64 277.895 433.19 277.691L361.436 273.452L362.336 242.56Z" fill="#F5C520"/>
<path d="M434.178 277.99C437.516 277.984 440.781 277.006 443.573 275.175C446.365 273.343 448.563 270.738 449.898 267.678L450.173 267.028L474.126 211.447L473.629 211.231L449.4 267.466C448.04 270.58 445.76 273.204 442.864 274.984C439.969 276.763 436.599 277.614 433.206 277.421L361.714 273.198L362.6 242.833L422.075 242.793L439.401 200.533L438.899 200.328L421.713 242.251L362.074 242.292L361.158 273.707L361.42 273.723L433.175 277.962C433.509 277.98 433.847 277.99 434.178 277.99Z" fill="#0C0C0C"/>
<path d="M130.391 282.344L107.566 508.309L108.643 508.418L131.468 282.453L130.391 282.344Z" fill="#494949"/>
<path d="M500.423 282.342L499.345 282.451L522.186 508.414L523.264 508.305L500.423 282.342Z" fill="#494949"/>
<path d="M406.053 282.342L404.976 282.451L427.817 508.414L428.894 508.305L406.053 282.342Z" fill="#494949"/>
<path d="M36.021 282.343L13.1958 508.308L14.2732 508.417L37.0984 282.452L36.021 282.343Z" fill="#494949"/>
<path d="M15.4374 286.833L519.509 286.833C521.96 286.833 523.946 284.847 523.946 282.397C523.946 279.947 521.96 277.961 519.509 277.961L15.4374 277.961C12.9872 277.961 11.0009 279.947 11.0009 282.397C11.0009 284.847 12.9872 286.833 15.4374 286.833Z" fill="#292A2E"/>
<path opacity="0.8" d="M15.4374 286.833L519.509 286.833C521.96 286.833 523.946 284.847 523.946 282.397C523.946 279.947 521.96 277.961 519.509 277.961L15.4374 277.961C12.9872 277.961 11.0009 279.947 11.0009 282.397C11.0009 284.847 12.9872 286.833 15.4374 286.833Z" fill="white"/>
<path d="M10.459 282.397C10.4598 281.077 10.9846 279.811 11.9179 278.878C12.8513 277.945 14.1169 277.42 15.4369 277.419H519.507C520.827 277.419 522.094 277.943 523.027 278.877C523.961 279.81 524.485 281.077 524.485 282.397C524.485 283.717 523.961 284.983 523.027 285.917C522.094 286.85 520.827 287.375 519.507 287.375H15.4369C14.1169 287.374 12.8513 286.849 11.9179 285.916C10.9846 284.982 10.4598 283.717 10.459 282.397ZM15.4369 278.502C14.4039 278.502 13.4131 278.912 12.6827 279.643C11.9522 280.373 11.5418 281.364 11.5418 282.397C11.5418 283.43 11.9522 284.421 12.6827 285.151C13.4131 285.881 14.4039 286.292 15.4369 286.292H519.507C520.54 286.292 521.531 285.881 522.261 285.151C522.992 284.421 523.402 283.43 523.402 282.397C523.402 281.364 522.992 280.373 522.261 279.643C521.531 278.912 520.54 278.502 519.507 278.502H15.4369Z" fill="#292A2E"/>
<path d="M15.4374 286.833L421.532 286.833C423.982 286.833 425.968 284.847 425.968 282.397C425.968 279.947 423.982 277.961 421.532 277.961L15.4374 277.961C12.9872 277.961 11.0009 279.947 11.0009 282.397C11.0009 284.847 12.9872 286.833 15.4374 286.833Z" fill="white"/>
<path d="M10.459 282.397C10.4598 281.077 10.9846 279.811 11.9179 278.878C12.8513 277.945 14.1169 277.42 15.4369 277.419H421.532C422.852 277.419 424.118 277.943 425.052 278.877C425.985 279.81 426.51 281.077 426.51 282.397C426.51 283.717 425.985 284.983 425.052 285.917C424.118 286.85 422.852 287.375 421.532 287.375H15.4369C14.1169 287.374 12.8513 286.849 11.9179 285.916C10.9846 284.982 10.4598 283.717 10.459 282.397ZM15.4369 278.502C14.4039 278.502 13.4131 278.912 12.6827 279.643C11.9522 280.373 11.5418 281.364 11.5418 282.397C11.5418 283.43 11.9522 284.421 12.6827 285.151C13.4131 285.881 14.4039 286.292 15.4369 286.292H421.532C422.565 286.292 423.556 285.881 424.286 285.151C425.016 284.421 425.427 283.43 425.427 282.397C425.427 281.364 425.016 280.373 424.286 279.643C423.556 278.912 422.565 278.502 421.532 278.502H15.4369Z" fill="#292A2E"/>
<path d="M73.6521 464.979C73.6521 464.979 63.3991 480.069 72.4864 490.934C81.5738 501.798 71.2758 507.294 71.2758 507.294L34.2085 467.982L53.8483 449.462L73.6521 464.979Z" fill="#F5C520"/>
<path d="M127.46 222.352C127.46 222.352 162.07 341.391 153.913 358.792C145.893 375.901 72.6986 475.844 72.6986 475.844L46.376 452.905L111.477 347.33C111.477 347.33 92.2058 286.362 81.7871 254.388C75.5065 235.113 64.9389 235.727 63.9351 215.479L127.46 222.352Z" fill="#262626"/>
<path d="M89.1382 356.545L97.6999 346.795L95.4713 404.027L85.9292 413.096L89.1382 356.545Z" fill="#0A0A0A"/>
<path d="M87.7203 272.712C87.7203 272.712 83.6211 248.38 88.0051 253.592C102.26 270.538 103.679 322.688 103.679 322.688L87.7203 272.712Z" fill="#0A0A0A"/>
<path d="M111.669 478.592C111.669 478.592 114.582 493.693 128.724 494.535C142.866 495.376 139.797 506.64 139.797 506.64H85.7627V479.645L111.669 478.592Z" fill="#F5C520"/>
<path d="M30.9964 219.369C30.9964 219.369 30.7571 218.256 30.6174 224.762C30.5172 229.356 28.6515 245.617 35.1021 271.264C47.1857 319.317 83.3802 488.23 83.3802 488.23L118.884 487.931L85.4024 217.893L30.9964 219.369Z" fill="#262626"/>
<path d="M30.4464 219.564L30.3306 219.57C30.3306 219.57 30.4139 217.334 30.4464 219.564Z" fill="#333333"/>
<path d="M224.796 113.124C224.583 112.701 224.243 112.355 223.824 112.133C223.405 111.911 222.928 111.825 222.458 111.886C222.462 111.844 222.453 111.802 222.432 111.766C222.41 111.737 222.381 111.716 222.348 111.702C222.315 111.689 222.279 111.684 222.244 111.689L223.83 110.552C224.305 110.227 224.645 109.742 224.789 109.185C224.934 108.629 224.872 108.039 224.616 107.525C224.345 107.024 223.899 106.642 223.363 106.453C222.827 106.264 222.24 106.28 221.715 106.499C221.719 106.477 221.704 106.455 221.7 106.432L222.35 105.965C222.796 105.657 223.122 105.205 223.272 104.684C223.423 104.164 223.389 103.607 223.176 103.109C223.036 102.8 222.829 102.525 222.57 102.305C222.311 102.085 222.007 101.925 221.679 101.837C221.351 101.749 221.007 101.735 220.673 101.796C220.339 101.856 220.022 101.991 219.746 102.189L218.242 103.267C218.238 103.258 218.242 103.247 218.236 103.239C218.23 103.231 218.214 103.228 218.206 103.219C218.551 102.83 218.754 102.336 218.781 101.817C218.809 101.298 218.659 100.785 218.357 100.362C217.647 99.2201 216.008 99.4534 215.035 100.15L206.184 106.265L207.766 103.601C208.085 103.088 208.197 102.474 208.08 101.882C207.963 101.29 207.626 100.764 207.137 100.411C206.878 100.238 206.586 100.119 206.28 100.062C205.973 100.005 205.658 100.011 205.354 100.08C205.05 100.149 204.763 100.279 204.511 100.462C204.259 100.645 204.047 100.878 203.888 101.146L195.254 115.687C194.24 117.393 193.932 119.427 194.394 121.357C194.857 123.286 196.053 124.96 197.73 126.021C199.674 127.253 201.942 127.875 204.242 127.809C206.543 127.743 208.771 126.991 210.642 125.65L224.009 116.07C224.453 115.739 224.772 115.269 224.915 114.734C225.058 114.199 225.016 113.632 224.796 113.124Z" fill="#E98862"/>
<g opacity="0.25">
<path d="M209.485 109.307C209.518 109.352 209.566 109.382 209.621 109.391C209.675 109.401 209.731 109.388 209.777 109.357L218.187 103.531C218.21 103.516 218.229 103.495 218.244 103.472C218.259 103.449 218.27 103.422 218.275 103.395C218.28 103.368 218.279 103.34 218.273 103.312C218.267 103.285 218.256 103.259 218.24 103.237C218.224 103.214 218.204 103.194 218.181 103.179C218.157 103.164 218.131 103.154 218.104 103.149C218.077 103.144 218.048 103.144 218.021 103.15C217.994 103.156 217.968 103.167 217.945 103.183L209.535 109.009C209.513 109.024 209.493 109.044 209.478 109.068C209.463 109.091 209.452 109.117 209.447 109.145C209.442 109.172 209.443 109.2 209.449 109.227C209.454 109.254 209.465 109.28 209.481 109.303L209.485 109.307Z" fill="#0C0C0C"/>
</g>
<g opacity="0.25">
<path d="M211.952 113.087C211.984 113.132 212.033 113.162 212.088 113.171C212.142 113.18 212.198 113.168 212.244 113.136L221.629 106.635C221.652 106.62 221.672 106.6 221.687 106.576C221.702 106.553 221.712 106.527 221.717 106.499C221.722 106.472 221.722 106.444 221.716 106.417C221.71 106.39 221.699 106.364 221.683 106.341C221.65 106.296 221.601 106.266 221.547 106.256C221.492 106.246 221.436 106.257 221.389 106.287L212.003 112.788C211.98 112.804 211.961 112.824 211.946 112.847C211.93 112.87 211.92 112.896 211.915 112.924C211.91 112.951 211.91 112.979 211.916 113.006C211.922 113.034 211.933 113.059 211.949 113.082L211.952 113.087Z" fill="#0C0C0C"/>
</g>
<g opacity="0.25">
<path d="M214.6 117.197C214.633 117.241 214.682 117.271 214.736 117.28C214.791 117.29 214.847 117.277 214.892 117.246L222.379 112.061C222.425 112.029 222.457 111.98 222.467 111.924C222.477 111.869 222.464 111.812 222.432 111.766C222.4 111.72 222.351 111.688 222.296 111.678C222.241 111.668 222.184 111.68 222.138 111.712L214.651 116.898C214.628 116.914 214.608 116.934 214.593 116.957C214.578 116.98 214.568 117.006 214.563 117.034C214.558 117.061 214.558 117.089 214.564 117.116C214.57 117.144 214.581 117.169 214.597 117.192L214.6 117.197Z" fill="#0C0C0C"/>
</g>
<path d="M190.157 112.375L164.788 155.581L133.833 114.979L108.124 138.155L152.027 195.012L152.315 195.416C154.072 197.823 156.413 199.743 159.117 200.995C161.822 202.247 164.8 202.79 167.772 202.572C170.744 202.355 173.612 201.384 176.105 199.752C178.599 198.119 180.635 195.879 182.023 193.242L218.098 127.914L190.157 112.375Z" fill="#F5C520"/>
<path d="M162.3 160.776C162.245 160.776 162.191 160.762 162.143 160.735C162.095 160.708 162.054 160.669 162.025 160.622C161.997 160.575 161.98 160.521 161.978 160.466C161.976 160.411 161.988 160.356 162.013 160.307L164.5 155.434C164.545 155.369 164.612 155.322 164.688 155.303C164.765 155.283 164.846 155.292 164.916 155.328C164.987 155.364 165.042 155.425 165.071 155.498C165.1 155.572 165.101 155.653 165.074 155.728L162.587 160.601C162.56 160.653 162.519 160.698 162.468 160.728C162.418 160.759 162.36 160.776 162.3 160.776Z" fill="#0C0C0C"/>
<path d="M132.047 155.334L131.272 168.981L131.916 169.017L132.69 155.371L132.047 155.334Z" fill="#0C0C0C"/>
<path d="M50.303 56.5727C50.303 56.5727 49.1119 71.7625 45.6305 77.238C35.6005 93.0017 32.5398 110.83 42.2931 120.276C52.0464 129.722 114.932 130.58 119.944 109.171C124.164 91.1473 115.579 89.105 113.657 74.1741C112.788 67.4181 110.345 53.2446 110.345 53.2446" fill="#0A0A0A"/>
<path d="M103.935 105.749C103.826 105.734 102.621 125.725 79.3991 123.982C63.3225 122.778 57.5899 105.72 57.2217 105.72C58.9543 105.352 61.8736 104.817 62.6435 104.406C65.1753 103.045 68.3074 101.63 69.1234 96.7137C69.5939 93.8804 68.7958 79.3847 69.0416 76.5184L93.721 82.0264C93.3761 88.0812 90.963 102.118 99.4217 104.604C100.827 105.012 102.343 105.39 103.935 105.749Z" fill="#E98862"/>
<path opacity="0.52" d="M94.065 98.8648C93.6789 97.619 93.4299 96.3347 93.3227 95.0348C93.052 92.0683 93.1065 89.0812 93.4852 86.1266C88.4694 85.4494 83.7441 83.3791 79.846 80.1509C79.388 81.8434 76.8682 89.2377 77.5655 90.8463C78.8861 93.8864 85.0811 98.8648 94.065 98.8648Z" fill="#0C0C0C"/>
<path d="M90.7944 92.5734C81.0552 93.4018 68.5124 89.3649 66.0549 76.3787L63.835 64.6617C61.3775 51.6755 66.2059 39.8577 78.4325 37.5437C90.6596 35.2296 101.791 44.0273 104.248 57.0135L105.23 62.2009C106.174 67.1837 108.172 91.0948 90.7944 92.5734Z" fill="#E98862"/>
<path d="M101.747 62.7667C102.594 62.7667 103.28 62.0805 103.28 61.2339C103.28 60.3874 102.594 59.7012 101.747 59.7012C100.901 59.7012 100.214 60.3874 100.214 61.2339C100.214 62.0805 100.901 62.7667 101.747 62.7667Z" fill="#0C0C0C"/>
<path d="M86.045 64.8636C86.8915 64.8636 87.5778 64.1774 87.5778 63.3308C87.5778 62.4843 86.8915 61.798 86.045 61.798C85.1985 61.798 84.5122 62.4843 84.5122 63.3308C84.5122 64.1774 85.1985 64.8636 86.045 64.8636Z" fill="#0C0C0C"/>
<path d="M94.6623 74.5676C94.6703 74.5671 94.6783 74.566 94.6862 74.5644C95.1814 74.4669 95.6708 74.3422 96.1523 74.1908C96.8714 73.9596 97.8129 73.5768 97.6905 72.9277C97.5509 72.1875 94.0126 64.5896 93.6098 63.7234C93.5923 63.686 93.5677 63.6524 93.5373 63.6246C93.5068 63.5968 93.4712 63.5752 93.4325 63.5611C93.3937 63.547 93.3526 63.5407 93.3114 63.5426C93.2702 63.5444 93.2297 63.5543 93.1924 63.5718C93.155 63.5892 93.1214 63.6139 93.0936 63.6443C93.0657 63.6747 93.0442 63.7103 93.0301 63.7491C93.016 63.7878 93.0097 63.829 93.0115 63.8702C93.0134 63.9114 93.0233 63.9518 93.0408 63.9892C94.5497 67.2253 96.9791 72.5465 97.0733 73.0446C96.9921 73.2752 95.7988 73.7143 94.5692 73.9472C94.4899 73.9627 94.4196 74.0083 94.373 74.0744C94.3264 74.1405 94.3071 74.222 94.3191 74.3019C94.3311 74.3819 94.3735 74.4541 94.4374 74.5036C94.5014 74.5531 94.5819 74.576 94.6623 74.5676Z" fill="#0C0C0C"/>
<path d="M92.8515 80.1742C94.8457 79.9158 96.7513 79.1925 98.4147 78.0626C98.4836 78.0168 98.5316 77.9456 98.5483 77.8645C98.5651 77.7835 98.5491 77.6991 98.5039 77.6298C98.4588 77.5604 98.3881 77.5117 98.3072 77.4942C98.2263 77.4767 98.1418 77.4918 98.072 77.5363C94.4726 79.8813 90.8959 80.2608 87.7307 78.6333C87.6666 78.5987 87.6009 78.5674 87.5336 78.5396C87.4555 78.5121 87.3696 78.5165 87.2947 78.552C87.2199 78.5875 87.162 78.6512 87.1339 78.7291C87.1058 78.807 87.1096 78.8929 87.1445 78.9681C87.1794 79.0432 87.2426 79.1015 87.3203 79.1303C87.3452 79.1406 87.3863 79.1628 87.4437 79.1926C89.1085 80.0505 90.9914 80.3922 92.8515 80.1742Z" fill="#0C0C0C"/>
<path d="M54.0559 68.7451L65.0165 66.7359C73.3172 63.379 75.8278 49.0068 75.8278 49.0068C75.8278 49.0068 85.9103 58.8337 110.345 53.2446C110.345 53.2446 105.446 19.1687 69.3474 29.0768C57.7067 32.2712 49.3535 44.0013 50.3942 59.6778C51.1235 70.664 54.0559 68.7451 54.0559 68.7451Z" fill="#0A0A0A"/>
<path d="M67.5626 80.1915C63.8467 80.8954 60.0827 77.4898 59.3794 73.774C58.6761 70.0581 61.3004 67.4393 65.0162 66.7354L67.4018 68.8627L70.7586 79.5862L67.5626 80.1915Z" fill="#E98862"/>
<path d="M95.8484 57.5132C96.933 56.8132 98.186 56.4179 99.4759 56.3686C100.111 56.3405 100.746 56.4077 101.361 56.5679C101.969 56.7244 102.556 56.9569 103.107 57.2598C103.182 57.2995 103.239 57.3667 103.265 57.4474C103.292 57.5281 103.286 57.6159 103.249 57.6924C103.212 57.7689 103.147 57.8281 103.067 57.8576C102.988 57.8871 102.9 57.8846 102.822 57.8505L102.798 57.8397C102.289 57.5897 101.751 57.4045 101.196 57.2885C100.647 57.1709 100.083 57.1372 99.5247 57.1884C98.4157 57.2811 97.3509 57.6655 96.4385 58.3026L96.4093 58.3243C96.3032 58.3945 96.1741 58.421 96.049 58.3982C95.9238 58.3754 95.8124 58.3051 95.7379 58.202C95.6634 58.0989 95.6316 57.971 95.6493 57.8451C95.667 57.7191 95.7327 57.6048 95.8326 57.5262L95.8484 57.5132Z" fill="#0C0C0C"/>
<path d="M86.0736 59.8148C84.9931 59.5501 83.8619 59.5761 82.7947 59.8901C82.2552 60.0445 81.7421 60.2794 81.2727 60.5869C80.7969 60.8957 80.3618 61.2631 79.9776 61.6806L79.9603 61.6979C79.9002 61.7582 79.8191 61.7927 79.734 61.7943C79.6489 61.7958 79.5665 61.7642 79.5043 61.7062C79.442 61.6482 79.4048 61.5682 79.4003 61.4832C79.3959 61.3982 79.4247 61.3149 79.4806 61.2507C79.8844 60.7692 80.3474 60.3406 80.8585 59.9751C81.3739 59.6037 81.9421 59.3117 82.544 59.1088C83.7642 58.6893 85.0747 58.6055 86.3383 58.8662C86.4661 58.8937 86.5778 58.9709 86.6487 59.0807C86.7196 59.1905 86.744 59.324 86.7165 59.4518C86.689 59.5796 86.6119 59.6912 86.5021 59.7622C86.3923 59.8331 86.2588 59.8575 86.131 59.83L86.1109 59.8251L86.0736 59.8148Z" fill="#0C0C0C"/>
<path d="M93.2756 83.1229C93.637 83.081 93.9942 83.0086 94.3433 82.9063C94.3829 82.8949 94.4199 82.8758 94.4522 82.8501C94.4845 82.8243 94.5113 82.7925 94.5313 82.7564C94.5513 82.7203 94.5639 82.6807 94.5685 82.6397C94.5732 82.5987 94.5697 82.5572 94.5582 82.5175C94.5468 82.4779 94.5277 82.4409 94.502 82.4086C94.4763 82.3764 94.4445 82.3495 94.4084 82.3296C94.3723 82.3096 94.3326 82.2969 94.2916 82.2923C94.2506 82.2877 94.2091 82.2912 94.1695 82.3026C92.0682 82.9074 90.8733 82.106 90.8229 82.0714C90.7547 82.0235 90.6703 82.0047 90.5882 82.019C90.5061 82.0334 90.4331 82.0798 90.3852 82.148C90.3373 82.2162 90.3185 82.3007 90.3328 82.3827C90.3472 82.4648 90.3936 82.5379 90.4618 82.5858C91.3095 83.0845 92.3038 83.2743 93.2756 83.1229Z" fill="#0C0C0C"/>
<path d="M65.0399 66.5957L64.9316 66.2925C78.8187 61.307 75.4229 47.6793 75.3872 47.5423L75.6985 47.4605C75.7348 47.6013 79.2107 61.5106 65.0399 66.5957Z" fill="#0C0C0C"/>
<path opacity="0.1" d="M84.8077 75.5246C86.4111 75.3521 87.6083 74.2588 87.4818 73.0827C87.3552 71.9065 85.9528 71.0929 84.3495 71.2654C82.7461 71.4379 81.5489 72.5312 81.6754 73.7074C81.802 74.8835 83.2043 75.6971 84.8077 75.5246Z" fill="#0C0C0C"/>
<path opacity="0.1" d="M101.779 71.0251C101.909 72.1995 103.31 73.0122 104.913 72.8416C105.191 72.8118 105.464 72.7532 105.729 72.6668C105.819 71.2693 105.837 69.9244 105.813 68.6786C105.369 68.5626 104.908 68.5303 104.453 68.5833C102.85 68.7533 101.653 69.8443 101.779 71.0251Z" fill="#0C0C0C"/>
<path d="M132.787 149.759C132.056 158.352 128.498 211.964 127.795 222.549H30.6479C30.1005 213.003 27.8655 171.259 25.7891 152.59C23.8075 134.777 19.9189 125.857 22.769 120.592C27.4253 111.983 40.1537 107.011 48.8318 105.836C54.1313 105.118 62.1016 104.604 62.1016 104.604C62.1016 104.604 62.7768 118.256 78.8681 119.016C100.774 120.049 99.3108 104.604 99.4196 104.604C102.968 104.604 123.243 106.85 128.2 109.79C141.716 117.791 134.34 131.547 132.787 149.759Z" fill="#F5C520"/>
<path d="M193.189 155.76L184.219 199.358C184.037 200.243 183.557 201.039 182.859 201.613C182.161 202.187 181.287 202.505 180.383 202.513L118.618 203.039C118.029 203.043 117.446 202.916 116.913 202.667C116.379 202.417 115.908 202.052 115.533 201.597C115.159 201.141 114.891 200.609 114.75 200.037C114.608 199.465 114.596 198.868 114.715 198.291L123.685 154.694C123.867 153.809 124.347 153.013 125.046 152.439C125.744 151.864 126.617 151.547 127.521 151.539L189.286 151.013C189.875 151.008 190.458 151.136 190.992 151.385C191.525 151.635 191.996 152 192.371 152.455C192.745 152.91 193.012 153.443 193.154 154.015C193.296 154.587 193.308 155.183 193.189 155.76Z" fill="#292A2E"/>
<path d="M135.595 186.728C135.628 187.303 135.453 187.869 135.101 188.324C134.749 188.779 134.244 189.091 133.68 189.203L131.779 189.622C131.813 189.634 131.844 189.653 131.869 189.679C131.893 189.705 131.911 189.736 131.921 189.771C131.925 189.811 131.917 189.852 131.895 189.887C132.352 190.015 132.758 190.283 133.056 190.652C133.354 191.022 133.529 191.475 133.558 191.949C133.561 192.501 133.377 193.038 133.037 193.474C132.696 193.909 132.219 194.216 131.682 194.347L115.626 197.911C114.806 198.096 113.967 198.189 113.126 198.188C111.252 198.188 109.406 197.732 107.747 196.86C106.089 195.987 104.667 194.724 103.606 193.18C102.48 191.546 102.036 189.538 102.368 187.582C102.7 185.626 103.783 183.876 105.385 182.706L119.043 172.722C119.343 172.502 119.693 172.358 120.061 172.303L118.804 178.407L119.139 178.33L119.21 178.317L129.685 176.183C130.851 175.925 132.45 176.351 132.656 177.678C132.766 178.187 132.702 178.718 132.472 179.185C132.243 179.652 131.862 180.027 131.392 180.25C131.399 180.257 131.412 180.263 131.412 180.276C131.412 180.289 131.405 180.296 131.405 180.308L133.216 179.909C133.548 179.835 133.891 179.836 134.222 179.912C134.553 179.987 134.863 180.135 135.13 180.344C135.397 180.554 135.614 180.82 135.766 181.124C135.918 181.427 136 181.761 136.007 182.1C136.007 182.642 135.82 183.167 135.477 183.587C135.134 184.006 134.656 184.294 134.125 184.401L133.345 184.575C133.339 184.601 133.345 184.629 133.333 184.646C133.901 184.65 134.447 184.866 134.866 185.251C135.284 185.636 135.544 186.162 135.595 186.728Z" fill="#E98862"/>
<g opacity="0.25">
<path d="M120.978 182.424C120.99 182.478 121.023 182.526 121.07 182.556C121.116 182.587 121.173 182.598 121.228 182.587L131.249 180.529C131.304 180.518 131.353 180.485 131.383 180.438C131.414 180.391 131.425 180.334 131.414 180.279C131.403 180.224 131.37 180.176 131.323 180.145C131.276 180.114 131.219 180.103 131.164 180.114L121.142 182.172C121.087 182.184 121.04 182.216 121.009 182.263C120.979 182.31 120.968 182.367 120.98 182.421L120.978 182.424Z" fill="#0C0C0C"/>
</g>
<g opacity="0.25">
<path d="M121.763 186.869C121.776 186.923 121.809 186.97 121.855 187C121.902 187.03 121.958 187.04 122.012 187.029L133.197 184.735C133.251 184.724 133.299 184.691 133.329 184.644C133.36 184.597 133.37 184.54 133.359 184.485C133.346 184.431 133.313 184.384 133.266 184.354C133.22 184.324 133.163 184.313 133.109 184.323L121.925 186.616C121.87 186.628 121.822 186.661 121.792 186.708C121.762 186.755 121.751 186.812 121.762 186.866L121.763 186.869Z" fill="#0C0C0C"/>
</g>
<g opacity="0.25">
<path d="M122.585 191.688C122.597 191.743 122.63 191.79 122.676 191.821C122.723 191.851 122.779 191.862 122.834 191.851L131.755 190.021C131.783 190.016 131.809 190.006 131.832 189.99C131.856 189.975 131.876 189.955 131.891 189.931C131.907 189.908 131.918 189.882 131.923 189.854C131.929 189.827 131.929 189.798 131.923 189.771C131.917 189.743 131.906 189.717 131.89 189.694C131.875 189.671 131.854 189.651 131.831 189.636C131.807 189.621 131.781 189.61 131.753 189.605C131.726 189.6 131.697 189.601 131.67 189.607L122.748 191.436C122.694 191.448 122.646 191.481 122.616 191.528C122.585 191.575 122.575 191.632 122.586 191.686L122.585 191.688Z" fill="#0C0C0C"/>
</g>
<path d="M114.632 204.264L27.5241 220.006C24.8059 220.302 22.0562 219.963 19.4906 219.018C16.925 218.073 14.6134 216.546 12.7371 214.557C10.8609 212.568 9.47101 210.171 8.67656 207.555C7.88211 204.939 7.7047 202.174 8.15826 199.477L20.3534 126.993C21.1323 122.364 23.7179 118.235 27.5414 115.513C29.4346 114.166 31.5747 113.204 33.8395 112.683C36.1043 112.163 38.4495 112.093 40.7412 112.479C43.0328 112.864 45.2261 113.698 47.1957 114.931C49.1654 116.164 50.8728 117.774 52.2205 119.667C53.5683 121.56 54.5299 123.7 55.0506 125.965C55.5712 128.23 55.6407 130.575 55.255 132.867L46.9419 182.762L110.805 174.742L114.632 204.264Z" fill="#F5C520"/>
<path d="M27.5235 220.328C27.4463 220.322 27.3737 220.289 27.3187 220.235C27.2637 220.181 27.2299 220.108 27.2233 220.031C27.2168 219.954 27.238 219.877 27.2831 219.815C27.3282 219.752 27.3942 219.707 27.4693 219.689L114.276 204.002L110.527 175.102L46.9797 183.083C46.9302 183.089 46.8799 183.083 46.8328 183.067C46.7858 183.05 46.7433 183.022 46.709 182.986C46.6741 182.95 46.6482 182.906 46.6333 182.858C46.6185 182.81 46.6151 182.76 46.6234 182.71L51.9094 150.82C51.9159 150.778 51.9307 150.738 51.953 150.701C51.9752 150.665 52.0045 150.634 52.0391 150.609C52.0736 150.585 52.1128 150.567 52.1542 150.558C52.1956 150.549 52.2385 150.548 52.2803 150.555C52.3221 150.562 52.3621 150.577 52.398 150.599C52.4339 150.622 52.4651 150.651 52.4897 150.686C52.5143 150.72 52.5318 150.759 52.5413 150.8C52.5508 150.841 52.5521 150.884 52.5451 150.926L47.3295 182.39L110.764 174.423C110.848 174.413 110.933 174.437 111.001 174.489C111.068 174.541 111.112 174.617 111.124 174.702L114.953 204.224C114.963 204.306 114.942 204.388 114.893 204.455C114.845 204.521 114.772 204.567 114.691 204.582L27.5814 220.323C27.5623 220.326 27.5429 220.328 27.5235 220.328Z" fill="#0C0C0C"/>
<path d="M46.8895 182.445L41.2861 183.342L41.3881 183.979L46.9914 183.082L46.8895 182.445Z" fill="#0C0C0C"/>
<path d="M342.14 49.2088C342.147 42.6538 340.844 36.1635 338.305 30.1198C335.767 24.0761 332.046 18.6012 327.36 14.0172C322.674 9.43325 317.119 5.83279 311.021 3.42775C304.923 1.0227 298.406 -0.138347 291.853 0.0129274C265.249 0.611206 243.759 22.6858 243.835 49.297C243.848 56.1662 245.304 62.9559 248.11 69.2258C250.916 75.4956 255.009 81.1055 260.123 85.6913C271.127 95.5892 277.66 109.51 277.643 124.311V124.365L308.158 124.4V124.346C308.175 109.565 314.705 95.6504 325.729 85.7996C330.89 81.2028 335.02 75.5661 337.849 69.2598C340.677 62.9535 342.139 56.1203 342.14 49.2088Z" fill="#0CBC8B"/>
<path d="M307.694 54.0887C307.189 53.439 306.311 53.0351 305.085 52.8975C303.009 52.6653 300.637 53.8418 298.6 56.1342L298.402 56.3508L298.248 56.105C297.975 55.6618 297.663 55.2431 297.318 54.8537C295.851 53.211 293.208 51.5337 288.925 52.8553C287.487 53.2743 286.163 54.018 285.057 55.0291L284.907 55.1699L284.759 55.0291C284.416 54.7172 284.043 54.4393 283.647 54.1991C281.241 52.7324 278.558 53.0838 276.731 53.6371C276.225 53.7917 275.792 54.1261 275.515 54.5774C275.237 55.0287 275.134 55.5658 275.225 56.0876L287.186 124.449C287.206 124.564 287.271 124.666 287.366 124.733C287.461 124.801 287.579 124.827 287.694 124.807C287.809 124.788 287.911 124.723 287.979 124.628C288.046 124.532 288.072 124.414 288.053 124.3L276.089 55.9404C276.034 55.6294 276.095 55.309 276.26 55.0397C276.425 54.7704 276.683 54.5708 276.985 54.4785C278.64 53.9782 281.06 53.6528 283.19 54.9528C283.539 55.1642 283.868 55.4097 284.169 55.6859L284.318 55.8223L284.195 55.9804C283.176 57.3251 282.608 58.9571 282.571 60.6438C282.456 63.5068 283.699 66.3699 285.341 67.0196C285.658 67.1495 286.005 67.1899 286.343 67.1365C286.681 67.0832 286.998 66.9381 287.26 66.717C287.818 66.26 288.668 65.0526 288.121 62.1062C287.634 59.5111 286.795 57.4499 285.622 55.9674L285.495 55.8093L285.644 55.6686C286.657 54.7478 287.868 54.073 289.183 53.6967C292.218 52.7616 294.804 53.3588 296.658 55.4401C297.074 55.9091 297.436 56.4232 297.738 56.9729L297.808 57.0958L297.724 57.21C297.562 57.4266 297.404 57.6491 297.25 57.8776C295.476 60.5122 294.062 64.2621 295.151 66.2735C295.366 66.6634 295.688 66.9832 296.08 67.1944C296.472 67.4057 296.916 67.4995 297.36 67.4647H297.399C298.304 67.4517 299.064 66.8502 299.534 65.7787C300.454 63.6839 300.183 60.1316 298.897 57.3259L298.84 57.203L298.928 57.0974C300.706 54.9458 302.726 53.747 304.535 53.747C304.689 53.747 304.838 53.7557 304.987 53.7687C307.297 54.0324 307.261 55.2306 307.253 55.367L297.487 124.328C297.479 124.385 297.482 124.443 297.497 124.499C297.511 124.555 297.536 124.608 297.571 124.654C297.606 124.7 297.649 124.739 297.699 124.768C297.749 124.797 297.804 124.816 297.861 124.824C297.975 124.837 298.09 124.805 298.182 124.736C298.274 124.666 298.337 124.565 298.357 124.451L308.118 55.5013C308.165 54.9932 308.013 54.4867 307.694 54.0887ZM287.256 62.2643C287.739 64.8593 287.031 65.7684 286.702 66.0364C286.52 66.1934 286.289 66.2806 286.048 66.2822C285.917 66.2806 285.788 66.2553 285.666 66.2075C284.533 65.7548 283.338 63.3753 283.446 60.679C283.491 59.2626 283.939 57.8885 284.737 56.7179L284.909 56.4721L285.093 56.7135C286.22 58.379 286.959 60.2757 287.256 62.2643ZM298.73 65.4257C298.396 66.1837 297.944 66.5762 297.386 66.5849H297.303C297.027 66.6151 296.747 66.5619 296.502 66.432C296.256 66.3021 296.055 66.1015 295.924 65.8561C295.166 64.4511 296.047 61.2323 297.981 58.3692L298.219 58.0178L298.394 58.3779C299.332 60.8322 299.472 63.7304 298.73 65.4251V65.4257Z" fill="white"/>
<path d="M277.662 124.322L308.177 124.352L308.175 126.136C308.171 130.182 306.56 134.061 303.696 136.92C300.831 139.778 296.949 141.382 292.903 141.378C288.856 141.374 284.977 139.762 282.118 136.898C279.26 134.034 277.656 130.152 277.66 126.105L277.662 124.322Z" fill="#262626"/>
</svg>
