<svg width="148" height="25" viewBox="0 0 148 25" fill="none" xmlns="http://www.w3.org/2000/svg">
<path d="M2.84047 24.04C2.37647 24.04 1.96847 24.008 1.61647 23.944C1.26447 23.896 0.960469 23.84 0.704469 23.776V20.752C0.960469 20.816 1.23247 20.872 1.52047 20.92C1.79247 20.968 2.08847 20.992 2.40847 20.992C2.82447 20.992 3.20047 20.912 3.53647 20.752C3.88847 20.592 4.16047 20.288 4.35247 19.84C4.54447 19.392 4.64047 18.752 4.64047 17.92V1.864H8.26447V17.896C8.26447 19.368 8.03247 20.552 7.56847 21.448C7.12047 22.36 6.48847 23.016 5.67247 23.416C4.85647 23.832 3.91247 24.04 2.84047 24.04ZM17.6978 5.656C18.9138 5.656 19.9538 5.888 20.8178 6.352C21.6978 6.816 22.3778 7.488 22.8578 8.368C23.3378 9.248 23.5778 10.328 23.5778 11.608V13.336H15.1298C15.1618 14.344 15.4578 15.136 16.0178 15.712C16.5938 16.288 17.3858 16.576 18.3938 16.576C19.2418 16.576 20.0098 16.496 20.6978 16.336C21.3858 16.16 22.0978 15.896 22.8338 15.544V18.304C22.1938 18.624 21.5138 18.856 20.7938 19C20.0898 19.16 19.2338 19.24 18.2258 19.24C16.9138 19.24 15.7538 19 14.7458 18.52C13.7378 18.024 12.9458 17.28 12.3698 16.288C11.7938 15.296 11.5058 14.048 11.5058 12.544C11.5058 11.008 11.7618 9.736 12.2738 8.728C12.8018 7.704 13.5298 6.936 14.4578 6.424C15.3858 5.912 16.4658 5.656 17.6978 5.656ZM17.7218 8.2C17.0338 8.2 16.4578 8.424 15.9938 8.872C15.5458 9.32 15.2818 10.016 15.2018 10.96H20.2178C20.2178 10.432 20.1218 9.96 19.9298 9.544C19.7538 9.128 19.4818 8.8 19.1138 8.56C18.7458 8.32 18.2818 8.2 17.7218 8.2ZM33.7975 5.656C33.9735 5.656 34.1815 5.664 34.4215 5.68C34.6615 5.696 34.8535 5.72 34.9975 5.752L34.7335 9.112C34.6215 9.08 34.4535 9.056 34.2295 9.04C34.0215 9.008 33.8375 8.992 33.6775 8.992C33.2135 8.992 32.7655 9.056 32.3335 9.184C31.9015 9.296 31.5095 9.48 31.1575 9.736C30.8215 9.992 30.5495 10.336 30.3415 10.768C30.1495 11.184 30.0535 11.704 30.0535 12.328V19H26.4775V5.896H29.1895L29.7175 8.104H29.8855C30.1415 7.656 30.4615 7.248 30.8455 6.88C31.2295 6.512 31.6695 6.216 32.1655 5.992C32.6775 5.768 33.2215 5.656 33.7975 5.656ZM44.6959 5.656C44.8719 5.656 45.0799 5.664 45.3199 5.68C45.5599 5.696 45.7519 5.72 45.8959 5.752L45.6319 9.112C45.5199 9.08 45.3519 9.056 45.1279 9.04C44.9199 9.008 44.7359 8.992 44.5759 8.992C44.1119 8.992 43.6639 9.056 43.2319 9.184C42.7999 9.296 42.4079 9.48 42.0559 9.736C41.7199 9.992 41.4479 10.336 41.2399 10.768C41.0479 11.184 40.9519 11.704 40.9519 12.328V19H37.3759V5.896H40.0879L40.6159 8.104H40.7839C41.0399 7.656 41.3599 7.248 41.7439 6.88C42.1279 6.512 42.5679 6.216 43.0639 5.992C43.5759 5.768 44.1199 5.656 44.6959 5.656ZM46.4023 5.896H50.3143L52.7863 13.264C52.8663 13.504 52.9303 13.744 52.9783 13.984C53.0423 14.224 53.0903 14.472 53.1223 14.728C53.1703 14.984 53.2023 15.256 53.2183 15.544H53.2903C53.3383 15.128 53.4023 14.736 53.4823 14.368C53.5783 13.984 53.6823 13.616 53.7943 13.264L56.2183 5.896H60.0583L54.5143 20.68C54.1783 21.576 53.7383 22.328 53.1943 22.936C52.6663 23.544 52.0503 24 51.3463 24.304C50.6423 24.608 49.8743 24.76 49.0423 24.76C48.6423 24.76 48.2903 24.736 47.9863 24.688C47.6983 24.656 47.4423 24.616 47.2183 24.568V21.736C47.3943 21.768 47.6023 21.8 47.8423 21.832C48.0983 21.864 48.3623 21.88 48.6343 21.88C49.1303 21.88 49.5543 21.776 49.9063 21.568C50.2743 21.36 50.5783 21.072 50.8183 20.704C51.0583 20.352 51.2503 19.968 51.3943 19.552L51.6103 18.904L46.4023 5.896ZM65.8024 19H62.2264V1.864H72.0424V4.84H65.8024V9.256H71.6104V12.232H65.8024V19ZM82.4303 5.656C82.6063 5.656 82.8143 5.664 83.0543 5.68C83.2943 5.696 83.4863 5.72 83.6303 5.752L83.3663 9.112C83.2543 9.08 83.0863 9.056 82.8623 9.04C82.6543 9.008 82.4703 8.992 82.3103 8.992C81.8463 8.992 81.3983 9.056 80.9663 9.184C80.5343 9.296 80.1423 9.48 79.7903 9.736C79.4543 9.992 79.1823 10.336 78.9743 10.768C78.7823 11.184 78.6863 11.704 78.6863 12.328V19H75.1103V5.896H77.8223L78.3503 8.104H78.5183C78.7743 7.656 79.0943 7.248 79.4783 6.88C79.8623 6.512 80.3023 6.216 80.7983 5.992C81.3103 5.768 81.8543 5.656 82.4303 5.656ZM89.5847 5.896V19H86.0087V5.896H89.5847ZM87.8087 0.759999C88.3367 0.759999 88.7927 0.887999 89.1767 1.144C89.5607 1.384 89.7527 1.84 89.7527 2.512C89.7527 3.168 89.5607 3.624 89.1767 3.88C88.7927 4.136 88.3367 4.264 87.8087 4.264C87.2647 4.264 86.8007 4.136 86.4167 3.88C86.0487 3.624 85.8647 3.168 85.8647 2.512C85.8647 1.84 86.0487 1.384 86.4167 1.144C86.8007 0.887999 87.2647 0.759999 87.8087 0.759999ZM98.7212 5.656C99.9372 5.656 100.977 5.888 101.841 6.352C102.721 6.816 103.401 7.488 103.881 8.368C104.361 9.248 104.601 10.328 104.601 11.608V13.336H96.1532C96.1852 14.344 96.4812 15.136 97.0412 15.712C97.6172 16.288 98.4092 16.576 99.4172 16.576C100.265 16.576 101.033 16.496 101.721 16.336C102.409 16.16 103.121 15.896 103.857 15.544V18.304C103.217 18.624 102.537 18.856 101.817 19C101.113 19.16 100.257 19.24 99.2492 19.24C97.9372 19.24 96.7772 19 95.7692 18.52C94.7612 18.024 93.9692 17.28 93.3932 16.288C92.8172 15.296 92.5292 14.048 92.5292 12.544C92.5292 11.008 92.7852 9.736 93.2972 8.728C93.8252 7.704 94.5532 6.936 95.4812 6.424C96.4092 5.912 97.4892 5.656 98.7212 5.656ZM98.7452 8.2C98.0572 8.2 97.4812 8.424 97.0172 8.872C96.5692 9.32 96.3052 10.016 96.2252 10.96H101.241C101.241 10.432 101.145 9.96 100.953 9.544C100.777 9.128 100.505 8.8 100.137 8.56C99.7692 8.32 99.3052 8.2 98.7452 8.2ZM114.941 5.656C116.349 5.656 117.477 6.04 118.325 6.808C119.173 7.56 119.597 8.776 119.597 10.456V19H116.021V11.344C116.021 10.4 115.853 9.696 115.517 9.232C115.181 8.752 114.645 8.512 113.909 8.512C112.821 8.512 112.077 8.888 111.677 9.64C111.277 10.376 111.077 11.44 111.077 12.832V19H107.501V5.896H110.237L110.717 7.576H110.909C111.197 7.128 111.549 6.768 111.965 6.496C112.381 6.208 112.845 6 113.357 5.872C113.869 5.728 114.397 5.656 114.941 5.656ZM127.426 19.24C125.97 19.24 124.778 18.672 123.85 17.536C122.938 16.384 122.482 14.696 122.482 12.472C122.482 10.232 122.946 8.536 123.874 7.384C124.802 6.232 126.018 5.656 127.522 5.656C128.146 5.656 128.698 5.744 129.178 5.92C129.658 6.08 130.066 6.304 130.402 6.592C130.754 6.88 131.05 7.208 131.29 7.576H131.41C131.362 7.32 131.306 6.952 131.242 6.472C131.178 5.976 131.146 5.472 131.146 4.96V0.759999H134.722V19H131.986L131.29 17.296H131.146C130.922 17.648 130.634 17.976 130.282 18.28C129.946 18.568 129.546 18.8 129.082 18.976C128.618 19.152 128.066 19.24 127.426 19.24ZM128.674 16.384C129.666 16.384 130.362 16.096 130.762 15.52C131.162 14.928 131.37 14.048 131.386 12.88V12.496C131.386 11.216 131.186 10.24 130.786 9.568C130.402 8.896 129.682 8.56 128.626 8.56C127.842 8.56 127.226 8.904 126.778 9.592C126.33 10.264 126.106 11.24 126.106 12.52C126.106 13.8 126.33 14.768 126.778 15.424C127.226 16.064 127.858 16.384 128.674 16.384ZM147.606 15.112C147.606 15.992 147.398 16.744 146.982 17.368C146.566 17.976 145.942 18.44 145.11 18.76C144.278 19.08 143.246 19.24 142.014 19.24C141.102 19.24 140.318 19.176 139.662 19.048C139.006 18.936 138.35 18.744 137.694 18.472V15.52C138.398 15.84 139.158 16.104 139.974 16.312C140.79 16.52 141.51 16.624 142.134 16.624C142.838 16.624 143.334 16.52 143.622 16.312C143.926 16.104 144.078 15.832 144.078 15.496C144.078 15.272 144.014 15.072 143.886 14.896C143.774 14.72 143.518 14.52 143.118 14.296C142.718 14.072 142.094 13.784 141.246 13.432C140.43 13.08 139.758 12.736 139.23 12.4C138.702 12.048 138.31 11.632 138.054 11.152C137.798 10.656 137.67 10.04 137.67 9.304C137.67 8.088 138.142 7.176 139.086 6.568C140.03 5.96 141.286 5.656 142.854 5.656C143.67 5.656 144.446 5.736 145.182 5.896C145.918 6.056 146.678 6.32 147.462 6.688L146.382 9.256C145.95 9.064 145.534 8.896 145.134 8.752C144.734 8.608 144.342 8.496 143.958 8.416C143.59 8.336 143.206 8.296 142.806 8.296C142.278 8.296 141.878 8.368 141.606 8.512C141.35 8.656 141.222 8.872 141.222 9.16C141.222 9.368 141.286 9.56 141.414 9.736C141.558 9.896 141.822 10.072 142.206 10.264C142.606 10.456 143.19 10.712 143.958 11.032C144.71 11.336 145.358 11.656 145.902 11.992C146.446 12.312 146.862 12.72 147.15 13.216C147.454 13.696 147.606 14.328 147.606 15.112Z" fill="black"/>
</svg>
